<?xml version="1.0" encoding="UTF-8" standalone="no"?>
<!-- Created with Inkscape (http://www.inkscape.org/) -->

<svg
   xmlns:dc="http://purl.org/dc/elements/1.1/"
   xmlns:cc="http://creativecommons.org/ns#"
   xmlns:rdf="http://www.w3.org/1999/02/22-rdf-syntax-ns#"
   xmlns:svg="http://www.w3.org/2000/svg"
   xmlns="http://www.w3.org/2000/svg"
   xmlns:sodipodi="http://sodipodi.sourceforge.net/DTD/sodipodi-0.dtd"
   xmlns:inkscape="http://www.inkscape.org/namespaces/inkscape"
   width="210mm"
   height="297mm"
   viewBox="0 0 210 297"
   version="1.1"
   id="svg5131"
   inkscape:version="0.92.2 5c3e80d, 2017-08-06"
   sodipodi:docname="my_knight_profile_3.svg">
  <defs
     id="defs5125" />
  <sodipodi:namedview
     id="base"
     pagecolor="#ffffff"
     bordercolor="#666666"
     borderopacity="1.0"
     inkscape:pageopacity="0.0"
     inkscape:pageshadow="2"
     inkscape:zoom="2.8"
     inkscape:cx="44.138286"
     inkscape:cy="16.501021"
     inkscape:document-units="mm"
     inkscape:current-layer="layer1"
     showgrid="false"
     inkscape:window-width="1440"
     inkscape:window-height="855"
     inkscape:window-x="0"
     inkscape:window-y="1"
     inkscape:window-maximized="1" />
  <metadata
     id="metadata5128">
    <rdf:RDF>
      <cc:Work
         rdf:about="">
        <dc:format>image/svg+xml</dc:format>
        <dc:type
           rdf:resource="http://purl.org/dc/dcmitype/StillImage" />
        <dc:title></dc:title>
      </cc:Work>
    </rdf:RDF>
  </metadata>
  <g
     inkscape:label="Layer 1"
     inkscape:groupmode="layer"
     id="layer1">
    <path
       sodipodi:nodetypes="csssssssssscscscsssssssssscc"
       inkscape:connector-curvature="0"
       id="path5729"
       d="m 18.401632,296.96899 c 0,0 0.524373,-0.50921 0.563802,-0.84571 0.03499,-0.29857 -0.197725,-0.56816 -0.313231,-0.8457 -1.030254,-2.4755 -2.524873,-4.75773 -3.382802,-7.2981 -0.821079,-2.43125 -1.374222,-4.96717 -1.660082,-7.51735 -0.196561,-1.75354 -0.161173,-3.53373 -0.03129,-5.29346 0.09565,-1.29592 0.416949,-2.56548 0.595127,-3.85265 0.141347,-1.0211 0.392958,-2.03889 0.375868,-3.06959 -0.01121,-0.67622 -0.01893,-1.39569 -0.313231,-2.00462 -0.08038,-0.16631 -0.236247,-0.28626 -0.375868,-0.4072 -0.153228,-0.13273 -0.312704,-0.26982 -0.501154,-0.34454 -0.382976,-0.15184 -1.221565,-0.18793 -1.221565,-0.18793 l -1.816692,-2.97562 c -0.16149,-0.26451 -0.8205139,-0.43015 -0.8205139,-0.43015 0,0 -0.6595436,0.16649 -0.820514,0.43015 l -1.816692,2.97562 c 0,0 -0.8385887,0.0361 -1.221565,0.18793 -0.1884501,0.0747 -0.3479259,0.21181 -0.501154,0.34454 -0.1396207,0.12094 -0.2954878,0.24089 -0.375868,0.4072 -0.2942981,0.60893 -0.3020186,1.3284 -0.313231,2.00462 -0.01709,1.0307 0.2345212,2.04849 0.375868,3.06959 0.178178,1.28717 0.4994769,2.55673 0.595127,3.85265 0.129883,1.75973 0.1652708,3.53992 -0.03129,5.29346 -0.2858605,2.55018 -0.8390035,5.0861 -1.660082,7.51735 -0.8579289,2.54037 -2.3525483,4.8226 -3.38280197,7.2981 -0.11550598,0.27754 -0.34821583056,0.54713 -0.313231,0.8457 0.03942932,0.3365 0.563802,0.84571 0.563802,0.84571 z"
       style="fill:none;fill-rule:evenodd;stroke:#000000;stroke-width:0.06201499px;stroke-linecap:butt;stroke-linejoin:miter;stroke-opacity:1" />
  </g>
</svg>
