<?xml version="1.0" encoding="UTF-8" standalone="no"?>
<!-- Created with Inkscape (http://www.inkscape.org/) -->

<svg
   xmlns:dc="http://purl.org/dc/elements/1.1/"
   xmlns:cc="http://creativecommons.org/ns#"
   xmlns:rdf="http://www.w3.org/1999/02/22-rdf-syntax-ns#"
   xmlns:svg="http://www.w3.org/2000/svg"
   xmlns="http://www.w3.org/2000/svg"
   xmlns:sodipodi="http://sodipodi.sourceforge.net/DTD/sodipodi-0.dtd"
   xmlns:inkscape="http://www.inkscape.org/namespaces/inkscape"
   width="210mm"
   height="297mm"
   viewBox="0 0 210 297"
   version="1.1"
   id="svg3987"
   inkscape:version="0.92.2 5c3e80d, 2017-08-06"
   sodipodi:docname="my_knight_profile_2.svg">
  <defs
     id="defs3981" />
  <sodipodi:namedview
     id="base"
     pagecolor="#ffffff"
     bordercolor="#666666"
     borderopacity="1.0"
     inkscape:pageopacity="0.0"
     inkscape:pageshadow="2"
     inkscape:zoom="5.6"
     inkscape:cx="43.290665"
     inkscape:cy="80.792354"
     inkscape:document-units="mm"
     inkscape:current-layer="layer1"
     showgrid="false"
     inkscape:window-width="1440"
     inkscape:window-height="855"
     inkscape:window-x="0"
     inkscape:window-y="1"
     inkscape:window-maximized="1" />
  <metadata
     id="metadata3984">
    <rdf:RDF>
      <cc:Work
         rdf:about="">
        <dc:format>image/svg+xml</dc:format>
        <dc:type
           rdf:resource="http://purl.org/dc/dcmitype/StillImage" />
        <dc:title />
      </cc:Work>
    </rdf:RDF>
  </metadata>
  <g
     inkscape:label="Layer 1"
     inkscape:groupmode="layer"
     id="layer1">
    <path
       style="fill:none;fill-rule:evenodd;stroke:#000000;stroke-width:0.06041974px;stroke-linecap:butt;stroke-linejoin:miter;stroke-opacity:1"
       d="m 23.215045,296.96979 c 0,0 -0.05328,-0.11418 -0.04316,-0.17263 0.0177,-0.10221 0.08348,-0.20589 0.172628,-0.25894 0.273104,-0.16249 0.664418,0.0542 0.949453,-0.0863 0.228276,-0.11254 0.360494,-0.36103 0.517883,-0.56104 0.160378,-0.20381 0.3508,-0.40091 0.43157,-0.64736 0.09867,-0.30105 0.05782,-0.63298 0.04316,-0.94945 -0.02419,-0.52229 -0.154355,-1.03442 -0.215785,-1.55365 -0.156236,-1.32059 -0.354243,-2.64108 -0.388412,-3.97044 -0.0481,-1.87151 0.126293,-3.74298 0.258941,-5.6104 0.127997,-1.80194 0.336185,-3.59731 0.517884,-5.39462 0.164423,-1.62643 0.449589,-3.24345 0.517884,-4.87674 0.0541,-1.2939 0.0102,-2.5927 -0.08631,-3.88413 -0.101597,-1.35943 -0.145343,-2.74542 -0.517884,-4.05675 -0.142506,-0.50162 -0.320693,-1.01771 -0.647354,-1.42418 -0.315405,-0.39247 -0.761378,-0.6746 -1.208395,-0.9063 -0.456407,-0.23656 -0.958751,-0.39981 -1.467337,-0.47472 -0.697517,-0.10275 -1.455453,-0.20683 -2.11469,0.0431 -0.353074,0.13389 -0.595204,0.4676 -0.86314,0.73367 -0.390831,0.38812 -0.68996,0.86157 -1.078924,1.25155 -0.201646,0.20218 -0.395672,0.42616 -0.647354,0.56104 -0.618316,0.33137 -1.334586,0.45725 -2.028377,0.56104 -2.618791,0.3918 -5.29389,0.145 -7.9408804,0.21579 -1.6399462,0.0439 -3.3435382,-0.3249 -4.9198942,0.12947 -0.433827,0.12505 -0.818025,0.40192 -1.165238,0.69051 -0.235205,0.1955 -0.475106,0.41325 -0.604197,0.69051 -0.239591,0.5146 -0.265552,1.11552 -0.258942,1.68313 0.0077,0.65746 0.345256,1.94206 0.345256,1.94206 l 0.863139,1.48793 c 0,0 1.38772,0.72458 2.071534,0.87441 0.961325,0.21064 1.91524,0.99327 2.848359,1.306 0.8814442,0.29541 1.8335362,0.49461 2.5894182,1.03577 0.3235221,0.23162 0.7768251,0.90629 0.7768251,0.90629 0,0 -0.7453091,0.63625 -1.1220811,0.94946 -0.856961,0.71239 -1.7427492,1.39009 -2.5894172,2.11469 -0.851382,0.72863 -1.739248,1.42423 -2.503104,2.24416 -0.943461,1.01271 -1.938725,2.0363 -2.546261,3.27993 -0.41044,0.84017 -0.509048,1.80159 -0.690511,2.71889 -0.19740604,0.99788 -0.49853604,2.00597 -0.43156904,3.02098 0.05607,0.84983 0.350431,1.67912 0.69051104,2.45995 0.397022,0.91157 0.910727,1.78782 1.55365,2.54626 0.270403,0.31899 0.752135,0.45129 0.949454,0.81998 0.05473,0.10226 0.06711,0.23178 0.04316,0.34526 -0.01732,0.0821 -0.129471,0.21578 -0.129471,0.21578 z"
       id="path4543"
       inkscape:connector-curvature="0"
       sodipodi:nodetypes="cssssssssssssssssssssssssssccssscsssssssssscc" />
  </g>
</svg>
