<?xml version="1.0" encoding="UTF-8" standalone="no"?>
<!-- Created with Inkscape (http://www.inkscape.org/) -->

<svg
   xmlns:dc="http://purl.org/dc/elements/1.1/"
   xmlns:cc="http://creativecommons.org/ns#"
   xmlns:rdf="http://www.w3.org/1999/02/22-rdf-syntax-ns#"
   xmlns:svg="http://www.w3.org/2000/svg"
   xmlns="http://www.w3.org/2000/svg"
   xmlns:sodipodi="http://sodipodi.sourceforge.net/DTD/sodipodi-0.dtd"
   xmlns:inkscape="http://www.inkscape.org/namespaces/inkscape"
   width="210mm"
   height="297mm"
   viewBox="0 0 210 297"
   version="1.1"
   id="svg8"
   inkscape:version="0.92.2 5c3e80d, 2017-08-06"
   sodipodi:docname="my_queen_profile.svg">
  <defs
     id="defs2" />
  <sodipodi:namedview
     id="base"
     pagecolor="#ffffff"
     bordercolor="#666666"
     borderopacity="1.0"
     inkscape:pageopacity="0.0"
     inkscape:pageshadow="2"
     inkscape:zoom="0.98994949"
     inkscape:cx="227.62906"
     inkscape:cy="385.72449"
     inkscape:document-units="mm"
     inkscape:current-layer="layer1"
     showgrid="false"
     inkscape:window-width="1440"
     inkscape:window-height="855"
     inkscape:window-x="0"
     inkscape:window-y="1"
     inkscape:window-maximized="1"
     inkscape:snap-global="false" />
  <metadata
     id="metadata5">
    <rdf:RDF>
      <cc:Work
         rdf:about="">
        <dc:format>image/svg+xml</dc:format>
        <dc:type
           rdf:resource="http://purl.org/dc/dcmitype/StillImage" />
        <dc:title />
      </cc:Work>
    </rdf:RDF>
  </metadata>
  <g
     inkscape:label="Layer 1"
     inkscape:groupmode="layer"
     id="layer1">
    <path
       style="fill:none;fill-rule:evenodd;stroke:#000000;stroke-width:0.06261875px;stroke-linecap:butt;stroke-linejoin:miter;stroke-opacity:1"
       d="m 17.679315,296.9537 0.126509,-2.65668 -1.518105,-1.01209 0.75905,-0.75905 0.506037,-1.13857 v -1.13857 -0.50605 l -1.771128,-1.26508 -1.391596,-1.64462 -0.600923,-0.75907 -0.822304,-1.26507 -0.506037,-1.613 -0.3479,-1.58136 -0.06325,-1.3916 0.253023,-1.58137 0.126505,-0.72742 -0.09488,-0.22139 -0.221391,-0.2214 -0.411154,-0.22138 -0.664173,-0.0949 h -0.600919 c -2.3954578,-4.06182 -3.37502,-8.68192 -4.0623973,-12.82995 -0.7206106,-4.34859 0.4128128,-7.84396 0.5882597,-11.8578 l 4.0750506,-1.65778 c 0,0 0.271973,-0.14308 0.411164,-0.25302 0.13919,-0.10993 0.312553,-0.26973 0.41115,-0.41114 0.0986,-0.1414 0.13309,-0.23717 0.189764,-0.41116 0.05667,-0.174 0.112802,-0.36122 0.126504,-0.63255 0.0137,-0.27134 -0.01461,-0.73695 -0.09488,-0.98044 -0.08027,-0.24349 -0.182897,-0.33751 -0.284641,-0.47442 -0.101743,-0.1369 -0.194625,-0.24135 -0.316277,-0.34789 -0.121651,-0.10654 -0.411154,-0.28465 -0.411154,-0.28465 L 9.3929802,246.8561 c 0,0 -0.1767274,-0.67281 -0.2530167,-1.01208 -0.035379,-0.15733 -0.022547,-0.33026 -0.094878,-0.47439 -0.063615,-0.12677 -0.1799786,-0.22057 -0.2846495,-0.31628 -0.1166986,-0.10672 -0.2462818,-0.19948 -0.3795248,-0.28465 -0.1311544,-0.0838 -0.267687,-0.161 -0.4111513,-0.22139 -0.162882,-0.0686 -0.3359,-0.11034 -0.5060374,-0.15814 -0.1255393,-0.0353 -0.3795285,-0.0948 -0.3795285,-0.0948 v -1.79024 c 0.6625408,-0.12657 0.8903811,-0.35758 0.859119,-0.91941 -0.028304,-0.50864 -0.4606361,-0.83786 -0.859123,-0.88779 l 0.063255,-5.03682 0.031631,-1.70786 0.3479002,-2.34042 0.7274272,-2.11903 0.6641721,-1.29672 0.8223084,-1.20183 0.6009181,-0.79069 -1.5760051,-2.73259 c 0,0 -1.0639611,0.50847 -1.6499742,0.8666 L 3.4154329,222.8827 v -1.70787 l -0.1265069,-1.29671 -0.3479041,-1.13859 -0.5060338,-0.8223 -1.2967171,-0.6958 -0.79068107,-0.18977 -0.31627505,0.0317 v 79.90529 z"
       id="path826"
       inkscape:connector-curvature="0"
       sodipodi:nodetypes="cccccccccccccccccccccscczzzzzzzccssssssccscccccccccccccccccccc" />
  </g>
</svg>
