<?xml version="1.0" encoding="UTF-8" standalone="no"?>
<!-- Created with Inkscape (http://www.inkscape.org/) -->

<svg
   xmlns:dc="http://purl.org/dc/elements/1.1/"
   xmlns:cc="http://creativecommons.org/ns#"
   xmlns:rdf="http://www.w3.org/1999/02/22-rdf-syntax-ns#"
   xmlns:svg="http://www.w3.org/2000/svg"
   xmlns="http://www.w3.org/2000/svg"
   xmlns:sodipodi="http://sodipodi.sourceforge.net/DTD/sodipodi-0.dtd"
   xmlns:inkscape="http://www.inkscape.org/namespaces/inkscape"
   width="210mm"
   height="297mm"
   viewBox="0 0 210 297"
   version="1.1"
   id="svg1554"
   inkscape:version="0.92.2 5c3e80d, 2017-08-06"
   sodipodi:docname="my_bishop_profile.svg">
  <defs
     id="defs1548" />
  <sodipodi:namedview
     id="base"
     pagecolor="#ffffff"
     bordercolor="#666666"
     borderopacity="1.0"
     inkscape:pageopacity="0.0"
     inkscape:pageshadow="2"
     inkscape:zoom="0.49497475"
     inkscape:cx="-6.5939256"
     inkscape:cy="252.40117"
     inkscape:document-units="mm"
     inkscape:current-layer="layer1"
     showgrid="false"
     inkscape:snap-global="false"
     inkscape:window-width="1440"
     inkscape:window-height="855"
     inkscape:window-x="0"
     inkscape:window-y="1"
     inkscape:window-maximized="1" />
  <metadata
     id="metadata1551">
    <rdf:RDF>
      <cc:Work
         rdf:about="">
        <dc:format>image/svg+xml</dc:format>
        <dc:type
           rdf:resource="http://purl.org/dc/dcmitype/StillImage" />
        <dc:title></dc:title>
      </cc:Work>
    </rdf:RDF>
  </metadata>
  <g
     inkscape:label="Layer 1"
     inkscape:groupmode="layer"
     id="layer1">
    <path
       style="fill:none;fill-rule:evenodd;stroke:#000000;stroke-width:0.05759462px;stroke-linecap:butt;stroke-linejoin:miter;stroke-opacity:1"
       d="m 15.97145,296.99076 c 0,0 0.241499,-0.71316 0.203626,-1.07632 -0.02615,-0.25076 -0.155406,-0.48555 -0.290897,-0.69815 -0.162302,-0.25468 -0.3663,-0.49192 -0.610883,-0.66906 -0.172233,-0.12476 -0.581794,-0.26182 -0.581794,-0.26182 l 1.018139,-1.30903 0.02909,-1.45449 c -0.330606,-0.52081 -0.779571,-0.94332 -1.221765,-1.3672 -1.05294,-1.00446 -2.372719,-1.76144 -3.228955,-2.93807 -0.469826,-0.64562 -0.812607,-1.40297 -0.989049,-2.18173 -0.107154,-0.47293 -0.02909,-1.45448 -0.02909,-1.45448 l 0.203628,-1.77447 -0.4945244,-0.75633 -1.1926774,-0.43635 c 0,0 -2.4181364,-6.46254 -3.0835056,-9.8323 -0.2186961,-1.10759 -0.2908961,-3.37441 -0.2908961,-3.37441 l 4.4216301,-2.03627 c 0,0 0.4858594,-0.40168 0.6399734,-0.66907 0.156304,-0.27118 0.233225,-0.59007 0.261807,-0.90178 0.03559,-0.38816 -0.02549,-0.78452 -0.116359,-1.16358 -0.08731,-0.36423 -0.187207,-0.74414 -0.407255,-1.04723 -0.161934,-0.22304 -0.3842125,-0.42086 -0.639973,-0.52362 -0.4602884,-0.18491 -1.4835735,-0.11635 -1.4835735,-0.11635 0,0 -0.0052,-0.52367 0,-0.78542 0.0048,-0.24256 0.1011934,-0.4956 0.02909,-0.72725 -0.043231,-0.13887 -0.1715854,-0.23498 -0.2618066,-0.34907 -0.2348832,-0.29701 -0.6450849,-0.50305 -0.727242,-0.8727 -0.041331,-0.18596 0.058151,-0.38337 0.145448,-0.55269 0.069411,-0.13464 0.1922986,-0.23411 0.290897,-0.34908 0.143106,-0.16688 0.3197784,-0.30814 0.436345,-0.49452 0.066841,-0.10689 0.1350259,-0.22346 0.145448,-0.34908 0.0247,-0.29769 -0.2036268,-0.87269 -0.2036268,-0.87269 0,0 1.012895,-2.5013 1.2217659,-3.86893 0.1639932,-1.23215 0.1053244,-2.51947 -0.2036278,-3.72348 -0.4063906,-1.58373 -1.302,-3.00797 -2.1235464,-4.42163 -0.7879188,-1.35579 -1.8800969,-2.51795 -2.6762499,-3.86892 -0.5878481,-0.99752 -1.5417533,-3.1126 -1.5417533,-3.1126 0,0 0.6578971,-0.66741 0.872691,-1.07632 0.1598082,-0.30422 0.288301,-0.64541 0.290896,-0.98904 0.0027,-0.36229 -0.095201,-0.74234 -0.290896,-1.04724 -0.3493958,-0.54435 -0.8879952,-0.99848 -1.4835735,-1.25085 -0.6192005,-0.26238 -2.00718765,-0.20363 -2.00718765,-0.20363 l 0,64.97484 z"
       id="path2110"
       inkscape:connector-curvature="0"
       sodipodi:nodetypes="csssccccssccccsccssssscssssssssccssscssssc" />
  </g>
</svg>
